<svg width="64" height="64" viewBox="0 0 64 64" xmlns="http://www.w3.org/2000/svg" role="img" aria-label="Girl avatar">
  <defs>
    <linearGradient id="girl-bg" x1="0" y1="0" x2="1" y2="1">
      <stop offset="0%" stop-color="#ffeef6" />
      <stop offset="100%" stop-color="#ffd8e8" />
    </linearGradient>
  </defs>
  <rect width="64" height="64" fill="url(#girl-bg)" />
  <path d="M14.5 57c0-10 7.8-16.8 17.5-16.8s17.5 6.8 17.5 16.8" fill="#da6f9b" />
  <circle cx="20.5" cy="31" r="5.4" fill="#7f4a68" />
  <circle cx="43.5" cy="31" r="5.4" fill="#7f4a68" />
  <path d="M17 31.5c0-9.7 6.6-16.8 15-16.8s15 7.1 15 16.8v6H17v-6z" fill="#7f4a68" />
  <circle cx="32" cy="34.4" r="13.3" fill="#f8d8c4" />
  <circle cx="27.1" cy="33.4" r="1.5" fill="#7f4a68" />
  <circle cx="36.9" cy="33.4" r="1.5" fill="#7f4a68" />
  <path d="M25.9 39.9c2 2.2 4.1 3.3 6.1 3.3s4.1-1.1 6.1-3.3" fill="none" stroke="#a26045" stroke-width="2.3" stroke-linecap="round" />
  <circle cx="22.2" cy="27.6" r="1.4" fill="#ffaecf" />
  <circle cx="41.8" cy="27.6" r="1.4" fill="#ffaecf" />
</svg>
