<svg width="64" height="64" viewBox="0 0 64 64" xmlns="http://www.w3.org/2000/svg" role="img" aria-label="Grandfather avatar">
  <defs>
    <linearGradient id="grandfather-bg" x1="0" y1="0" x2="1" y2="1">
      <stop offset="0%" stop-color="#edf3fb" />
      <stop offset="100%" stop-color="#d6e2f2" />
    </linearGradient>
  </defs>
  <rect width="64" height="64" fill="url(#grandfather-bg)" />
  <path d="M14 57c0-10.8 8.2-17.6 18-17.6S50 46.2 50 57" fill="#6c8099" />
  <circle cx="32" cy="34" r="15" fill="#efd0bb" />
  <path d="M16.8 30c0-9.2 6.8-16 15.2-16s15.2 6.8 15.2 16v1.9H16.8V30z" fill="#919baa" />
  <g fill="none" stroke="#687389" stroke-width="1.4">
    <circle cx="27.5" cy="34.2" r="3.1" />
    <circle cx="36.5" cy="34.2" r="3.1" />
    <path d="M30.6 34.2h2.8" />
  </g>
  <path d="M24.1 39.8c2.5 2.5 4.1 1.8 5.7.2 1.1 1.7 2.5 2 4.4.2 1.4 1.9 3.1 2.1 5.6-.2" fill="none" stroke="#7d899f" stroke-width="2" stroke-linecap="round" />
  <path d="M25 43.8c2 1.6 4.4 2.4 7 2.4s5-.8 7-2.4" fill="none" stroke="#9d6248" stroke-width="2.1" stroke-linecap="round" />
</svg>
