<svg width="64" height="64" viewBox="0 0 64 64" xmlns="http://www.w3.org/2000/svg" role="img" aria-label="Boy avatar">
  <defs>
    <linearGradient id="boy-bg" x1="0" y1="0" x2="1" y2="1">
      <stop offset="0%" stop-color="#ebf6ff" />
      <stop offset="100%" stop-color="#cde5ff" />
    </linearGradient>
  </defs>
  <rect width="64" height="64" fill="url(#boy-bg)" />
  <path d="M14 57c0-10.2 8-17 18-17s18 6.8 18 17" fill="#4f8bd0" />
  <circle cx="32" cy="34" r="14.7" fill="#f6d5be" />
  <path d="M17 30.5c.7-9 7-15.7 15-15.7 5.1 0 9.8 2.4 12.4 7.4l-4.9-.8-1.4 2.6-4.1-2.9-3.6 2.5-2.9-2-2.4 2.1-5.1.8z" fill="#345b86" />
  <circle cx="26.8" cy="33" r="1.5" fill="#345b86" />
  <circle cx="37.2" cy="33" r="1.5" fill="#345b86" />
  <path d="M25 39.4c2.1 2.4 4.4 3.5 7 3.5s4.9-1.1 7-3.5" fill="none" stroke="#9f5f41" stroke-width="2.4" stroke-linecap="round" />
  <circle cx="24" cy="36.5" r="1.1" fill="#e7a784" />
  <circle cx="40" cy="36.5" r="1.1" fill="#e7a784" />
</svg>
